<?xml version="1.0" encoding="UTF-8"?>
<svg xmlns="http://www.w3.org/2000/svg" xmlns:xlink="http://www.w3.org/1999/xlink" width="13px" height="13px" viewBox="0 0 13 13" version="1.1">
<g id="surface1">
<path style=" stroke:none;fill-rule:nonzero;fill:rgb(13.72549%,12.156863%,12.54902%);fill-opacity:1;" d="M 10.601562 3.132812 L 6.773438 0.0585938 C 6.773438 0.0585938 4.730469 0.773438 1.070312 4.492188 C -2.585938 8.210938 3.773438 15.875 10.058594 11.765625 C 16.339844 7.65625 10.601562 3.132812 10.601562 3.132812 Z M 8.808594 10.503906 C 7.976562 11.046875 7.140625 11.324219 6.332031 11.324219 C 4.871094 11.324219 3.386719 10.417969 2.554688 9 C 1.945312 7.96875 1.644531 6.507812 2.628906 5.503906 C 4.378906 3.722656 5.699219 2.699219 6.535156 2.140625 L 9.203125 4.285156 C 9.226562 4.304688 11.113281 5.851562 10.996094 7.621094 C 10.9375 8.625 10.199219 9.59375 8.808594 10.503906 Z M 8.808594 10.503906 "/>
<path style=" stroke:none;fill-rule:nonzero;fill:rgb(13.72549%,12.156863%,12.54902%);fill-opacity:1;" d="M 4.136719 6.964844 C 4.4375 8.898438 5.730469 10.488281 6.527344 10.710938 C 6.667969 10.757812 6.828125 10.757812 6.96875 10.710938 C 7.210938 10.59375 7.328125 10.359375 7.246094 10.140625 C 7.234375 10.113281 7.214844 10.089844 7.195312 10.070312 C 6.785156 9.980469 6.425781 9.78125 6.175781 9.503906 C 5.976562 9.277344 5.863281 9.011719 5.84375 8.730469 C 6.371094 8.828125 6.925781 8.777344 7.417969 8.589844 C 8.730469 8.066406 9.378906 6.378906 8.785156 4.445312 L 4.683594 4.445312 C 4.359375 4.941406 4.164062 5.488281 4.105469 6.046875 C 4.074219 6.351562 4.085938 6.660156 4.136719 6.964844 Z M 7.253906 7.378906 C 7.128906 7.601562 6.886719 7.769531 6.59375 7.828125 C 6.375 7.867188 5.996094 7.859375 5.84375 7.667969 C 5.644531 7.410156 6.003906 7 6.171875 6.855469 C 6.261719 6.769531 6.371094 6.703125 6.496094 6.660156 C 6.726562 6.582031 7.117188 6.554688 7.292969 6.746094 C 7.46875 6.933594 7.308594 7.289062 7.253906 7.378906 Z M 7.253906 7.378906 "/>
</g>
</svg>
